<svg width="25" height="28" viewBox="0 0 25 28" fill="none" xmlns="http://www.w3.org/2000/svg">
<path d="M24.994 13.9807C24.9949 14.337 24.9006 14.6871 24.7208 14.9948C24.541 15.3025 24.2823 15.5565 23.9715 15.7307L2.98146 27.7319C2.68025 27.9027 2.34019 27.9931 1.99396 27.9944C1.67495 27.9927 1.36098 27.9147 1.07825 27.7669C0.795526 27.6191 0.552254 27.4059 0.368744 27.1449C0.185233 26.884 0.0668086 26.5829 0.0233563 26.2669C-0.0200959 25.9508 0.0126849 25.629 0.118962 25.3282L3.49396 15.3344C3.52695 15.2367 3.58933 15.1516 3.67258 15.0907C3.75582 15.0299 3.85585 14.9962 3.95896 14.9944H12.994C13.1311 14.9947 13.2667 14.9668 13.3926 14.9125C13.5184 14.8581 13.6318 14.7785 13.7256 14.6785C13.8193 14.5785 13.8916 14.4603 13.9377 14.3312C13.9839 14.2022 14.003 14.065 13.994 13.9282C13.9713 13.671 13.8523 13.4319 13.6608 13.2588C13.4694 13.0857 13.2196 12.9912 12.9615 12.9944H3.96146C3.85685 12.9944 3.75488 12.9616 3.66989 12.9006C3.5849 12.8396 3.52119 12.7535 3.48771 12.6544L0.112712 2.66193C-0.0216198 2.27892 -0.0362396 1.8641 0.070795 1.47259C0.177829 1.08107 0.401452 0.731387 0.711955 0.469989C1.02246 0.208591 1.40514 0.047852 1.80918 0.00912585C2.21321 -0.0296003 2.61946 0.0555192 2.97396 0.253177L23.974 12.2394C24.2831 12.4132 24.5404 12.666 24.7197 12.972C24.8989 13.2779 24.9936 13.6261 24.994 13.9807Z" fill="white"/>
</svg>




